<?xml version="1.0" encoding="UTF-8"?>
<!DOCTYPE svg PUBLIC "-//W3C//DTD SVG 1.1//EN" "http://www.w3.org/Graphics/SVG/1.1/DTD/svg11.dtd">
<svg xmlns="http://www.w3.org/2000/svg" version="1.1" width="500px" height="500px" style="shape-rendering:geometricPrecision; text-rendering:geometricPrecision; image-rendering:optimizeQuality; fill-rule:evenodd; clip-rule:evenodd" xmlns:xlink="http://www.w3.org/1999/xlink">
<g><path style="opacity:0.995" fill="#eb6e1f" d="M 227.5,-0.5 C 242.167,-0.5 256.833,-0.5 271.5,-0.5C 363.769,10.8674 431.602,57.5341 475,139.5C 488.179,167.561 496.345,196.894 499.5,227.5C 499.5,242.167 499.5,256.833 499.5,271.5C 488.47,362.998 442.47,430.498 361.5,474C 332.883,487.817 302.883,496.317 271.5,499.5C 256.833,499.5 242.167,499.5 227.5,499.5C 136.002,488.47 68.5021,442.47 25,361.5C 11.1829,332.883 2.68287,302.883 -0.5,271.5C -0.5,256.833 -0.5,242.167 -0.5,227.5C 10.3673,136.895 55.7006,69.728 135.5,26C 164.671,11.5449 195.337,2.71155 227.5,-0.5 Z"/></g>
<g><path style="opacity:1" fill="#f4bea7" d="M 263.5,130.5 C 241.5,130.5 219.5,130.5 197.5,130.5C 197.5,206.167 197.5,281.833 197.5,357.5C 196.501,281.668 196.167,205.668 196.5,129.5C 219.006,129.169 241.34,129.503 263.5,130.5 Z"/></g>
<g><path style="opacity:1" fill="#fefefd" d="M 263.5,130.5 C 297.949,133.452 315.282,152.286 315.5,187C 317.238,209.536 308.571,226.536 289.5,238C 310.715,248.913 320.715,266.413 319.5,290.5C 320.642,308.995 315.809,325.662 305,340.5C 295.663,349.585 284.496,355.085 271.5,357C 246.836,357.5 222.169,357.667 197.5,357.5C 197.5,281.833 197.5,206.167 197.5,130.5C 219.5,130.5 241.5,130.5 263.5,130.5 Z"/></g>
<g><path style="opacity:1" fill="#eb6f21" d="M 236.5,162.5 C 265.859,158.359 279.025,171.026 276,200.5C 273.784,213.383 266.284,220.883 253.5,223C 247.843,223.499 242.176,223.666 236.5,223.5C 236.5,203.167 236.5,182.833 236.5,162.5 Z"/></g>
<g><path style="opacity:1" fill="#eb6e20" d="M 236.5,255.5 C 244.208,255.358 251.875,255.858 259.5,257C 268.396,258.895 274.563,264.062 278,272.5C 281.777,287.175 280.777,301.508 275,315.5C 270.792,320.856 265.292,324.022 258.5,325C 251.174,325.5 243.841,325.666 236.5,325.5C 236.5,302.167 236.5,278.833 236.5,255.5 Z"/></g>
</svg>
